<?xml version="1.0"?>
<svg xmlns="http://www.w3.org/2000/svg" id="Layer_5" enable-background="new 0 0 64 64" height="512px" viewBox="0 0 64 64" width="512px"><g><circle cx="38" cy="23" r="1" data-original="#000000" class="active-path" data-old_color="#000000" fill="#4CCC60"/><circle cx="26" cy="23" r="1" data-original="#000000" class="active-path" data-old_color="#000000" fill="#4CCC60"/><path d="m36 32h-2c0 1.103-.897 2-2 2s-2-.897-2-2h-2c0 2.206 1.794 4 4 4s4-1.794 4-4z" data-original="#000000" class="active-path" data-old_color="#000000" fill="#4CCC60"/><path d="m49.123 47.288-10.259-4.197c-1.132-.463-1.864-1.553-1.864-2.777v-.718c3.077-2.126 5.427-5.126 6.759-8.596h.241c2.757 0 5-2.243 5-5v-7c1.103 0 2-.897 2-2v-2c0-1.103-.897-2-2-2h-.763c-2.18-7.1-8.739-12-16.237-12s-14.057 4.9-16.237 12h-.763c-1.103 0-2 .897-2 2v2c0 1.103.897 2 2 2v7c0 2.757 2.243 5 5 5h.241c1.332 3.471 3.682 6.47 6.759 8.596v.718c0 1.224-.732 2.313-1.864 2.776l-10.259 4.197c-6 2.456-9.877 8.231-9.877 14.713v1h10 34 10v-1c0-6.482-3.877-12.257-9.877-14.712zm-32.123 1.293 4-1.636v8.055h-4zm6-1.994 7.649 8.413h-7.649zm10.351 8.413 7.649-8.413v8.413zm9.649-8.056 4 1.636v6.42h-4zm1.414-17.986c.379-1.482.586-3.025.586-4.607v-1.167c1.161.414 2 1.514 2 2.816 0 1.512-1.129 2.754-2.586 2.958zm2.586-6.932c-.584-.442-1.257-.773-2-.924v-2.102h2zm-12.307-18.778-1.167 4.566c-.178.699-.805 1.186-1.526 1.186s-1.348-.487-1.526-1.185l-1.167-4.566c.877-.16 1.776-.249 2.693-.249s1.816.089 2.693.248zm-7.325.492 1.168 4.57c.404 1.584 1.829 2.69 3.464 2.69s3.06-1.106 3.464-2.69l1.168-4.57c4.382 1.421 7.945 4.804 9.514 9.26h-4.146v-2h-2v2h-2v-2h-2v2h-8v-2h-2v2h-2v-2h-2v2h-4.146c1.569-4.456 5.132-7.839 9.514-9.26zm-12.368 11.26h34l.001 2h-34.001zm4 4v2.101c-.743.152-1.416.482-2 .924v-3.025zm-2 7c0-1.302.839-2.402 2-2.816v1.167c0 1.582.207 3.125.586 4.607-1.457-.204-2.586-1.446-2.586-2.958zm4-1.649v-5.351h22v5.351c0 7.023-4.406 13.247-11 15.591-6.594-2.344-11-8.567-11-15.591zm10.684 17.597.316.106.316-.105c.947-.316 1.855-.702 2.719-1.152.102 1.066.53 2.051 1.217 2.828-.901 1.46-2.504 2.375-4.252 2.375s-3.351-.915-4.253-2.376c.688-.777 1.115-1.762 1.217-2.828.864.45 1.773.837 2.72 1.152zm-5.79 2.994c.086-.035.163-.083.246-.123 1.279 1.96 3.472 3.181 5.86 3.181s4.581-1.221 5.86-3.181c.083.04.161.088.247.123l1.228.503-7.335 8.069-7.335-8.069zm-18.859 16.058c.356-5.025 3.386-9.433 7.965-11.575v11.575zm9.965 0v-4h30v4zm32 0v-11.575c4.579 2.142 7.609 6.55 7.965 11.575z" data-original="#000000" class="active-path" data-old_color="#000000" fill="#4CCC60"/></g> </svg>
